<svg xmlns="http://www.w3.org/2000/svg" xmlns:xlink="http://www.w3.org/1999/xlink" viewBox="0 0 5783.333 3855.556">
  <defs>
    <radialGradient id="a" cx="2891.677" cy="1928.222" r="2457.444" gradientTransform="matrix(1, 0, 0, -1, -0.01, 3856)" gradientUnits="userSpaceOnUse">
      <stop offset="0" stop-color="#1a529f"/>
      <stop offset="1" stop-color="#11428f"/>
    </radialGradient>
  </defs>
  <title>Asset 1</title>
  <g>
    <rect width="5783.333" height="3855.556" style="fill: url(#a)"/>
    <path d="M54.167,79.889V3771.556M125.9,79.889V3771.608M197.627,79.889V3771.661M269.357,79.889V3771.714M341.086,79.889V3771.767M412.816,79.889v3691.93m71.73-3691.93V3771.872M556.276,79.889V3771.925M628.006,79.889V3771.977M699.736,79.889V3772.03M771.466,79.889V3772.083M843.2,79.889V3772.136M914.926,79.889v3692.3m71.73-3692.3V3772.241m71.73-3692.352V3772.294m71.73-3692.4V3772.347m71.73-3692.458V3772.4m71.73-3692.51V3772.452m71.73-3692.563V3772.505m71.73-3692.616V3772.558m71.73-3692.669V3772.61M1560.5,79.889V3772.663m71.73-3692.774V3772.716m71.73-3692.827v3692.88m71.73-3692.88V3772.821m71.73-3692.932V3772.874m71.73-3692.985V3772.927m71.73-3693.038V3772.98M2062.605,79.889V3773.032m71.73-3693.143v3693.2m71.73-3693.2V3773.138M2277.8,79.889v3693.3m71.73-3693.3V3773.243m71.73-3693.354V3773.3m71.73-3693.407v3693.46m71.73-3693.46V3773.4m71.73-3693.513V3773.454m71.73-3693.565V3773.507m71.73-3693.618V3773.56m71.73-3693.671V3773.613m71.73-3693.724V3773.665M2995.1,79.889V3773.718m71.73-3693.829V3773.771m71.73-3693.882V3773.823m71.73-3693.934V3773.876m71.73-3693.987v3694.04m71.73-3694.04V3773.982m71.73-3694.093V3774.034m71.73-3694.145v3694.2m71.73-3694.2V3774.14m71.73-3694.251v3694.3m71.73-3694.3V3774.245M3784.124,79.889V3774.3m71.73-3694.409V3774.351m71.73-3694.462V3774.4m71.73-3694.515V3774.456m71.73-3694.567v3694.62m71.73-3694.62V3774.562M4214.5,79.889V3774.615m71.73-3694.726V3774.667m71.73-3694.778V3774.72m71.73-3694.831V3774.773m71.73-3694.884V3774.826m71.73-3694.937V3774.878m71.73-3694.989V3774.931m71.73-3695.042v3695.1m71.73-3695.095V3775.037m71.73-3695.148v3695.2m71.73-3695.2V3775.142m71.73-3695.253V3775.2m71.73-3695.306V3775.248m71.73-3695.359V3775.3m71.73-3695.411V3775.353m71.73-3695.464V3775.406m71.73-3695.517v3695.57m71.73-3695.57V3775.511M5505.643,79.889V3775.564m71.73-3695.675V3775.617M5649.1,79.889v3695.78m71.73-3695.78V3775.722M50,79.889H5729.167M50,152.152H5729.167M50,224.415H5729.167M50,296.677H5729.167M50,368.94H5729.167M50,441.2H5729.167M50,513.466H5729.167M50,585.729H5729.167M50,657.992H5729.167M50,730.255H5729.167M50,802.517H5729.167M50,874.78H5729.167M50,947.043H5729.167M50,1019.306H5729.167M50,1091.569H5729.167M50,1163.832H5729.167M50,1236.094H5729.167M50,1308.357H5729.167M50,1380.62H5729.167M50,1452.883H5729.167M50,1525.146H5729.167M50,1597.409H5729.167M50,1669.672H5729.167M50,1741.934H5729.167M50,1814.2H5729.167M50,1886.46H5729.167M50,1958.723H5729.167M50,2030.986H5729.167M50,2103.249H5729.167M50,2175.512H5729.167M50,2247.774H5729.167M50,2320.037H5729.167M50,2392.3H5729.167M50,2464.563H5729.167M50,2536.826H5729.167M50,2609.089H5729.167M50,2681.351H5729.167M50,2753.614H5729.167M50,2825.877H5729.167M50,2898.14H5729.167M50,2970.4H5729.167M50,3042.666H5729.167M50,3114.929H5729.167M50,3187.191H5729.167M50,3259.454H5729.167M50,3331.717H5729.167M50,3403.98H5729.167M50,3476.243H5729.167M50,3548.506H5729.167M50,3620.769H5729.167M50,3693.031H5729.167M50,3765.294H5729.167" style="fill: none;stroke: #fff;stroke-miterlimit: 10;opacity: 0.25"/>
    <!-- <path d="M5611.551,254.389h-41.218a12.035,12.035,0,0,1-12-12V201.171a12.035,12.035,0,0,1,12-12h41.218a12.035,12.035,0,0,1,12,12v41.218A12.035,12.035,0,0,1,5611.551,254.389Zm-66.309-11.595V201.576a12.035,12.035,0,0,0-12-12h-41.217a12.035,12.035,0,0,0-12,12v41.218a12.035,12.035,0,0,0,12,12h41.217a12.035,12.035,0,0,0,12-12Zm78.331,77.7v-41.22a12.035,12.035,0,0,0-12-12h-41.217a12.035,12.035,0,0,0-12,12v41.217a12.035,12.035,0,0,0,12,12h41.217a12.035,12.035,0,0,0,12-12ZM185.225,3597.28h41.217a12.035,12.035,0,0,1,12,12v41.22a12.035,12.035,0,0,1-12,12H185.225a12.035,12.035,0,0,1-12-12v-41.22A12.035,12.035,0,0,1,185.225,3597.28Zm66.308,11.595v41.218a12.035,12.035,0,0,0,12,12H304.75a12.035,12.035,0,0,0,12-12v-41.218a12.035,12.035,0,0,0-12-12H263.533A12.035,12.035,0,0,0,251.533,3608.875Zm-78.331-77.7V3572.4a12.035,12.035,0,0,0,12,12H226.42a12.035,12.035,0,0,0,12-12v-41.217a12.035,12.035,0,0,0-12-12H185.2a12.035,12.035,0,0,0-12,11.995Z" style="fill: #fff;opacity: 0.2;isolation: isolate"/>
    <path d="M1419.417,287.556v225m-70.833-145.834h150M1419,319.389a47.917,47.917,0,1,0,47.916,47.918h0A47.917,47.917,0,0,0,1419,319.389Zm.332,11.833a36,36,0,1,0,36,36h0a36,36,0,0,0-36-36Zm1466.334-43.666v225m-70.833-145.834h150m-79.583-47.333a47.917,47.917,0,1,0,47.916,47.918h0a47.917,47.917,0,0,0-47.915-47.917Zm.332,11.833a36,36,0,1,0,36,36h0a36,36,0,0,0-36-36Zm1475.084-43.666v225m-70.833-145.834h150m-79.583-47.333a47.917,47.917,0,1,0,47.916,47.918h0a47.917,47.917,0,0,0-47.915-47.917Zm.332,11.833a36,36,0,1,0,36,36h0a36,36,0,0,0-36-36Zm.084,2989.834v225m79.167-79.167h-150m118.333-.583a47.917,47.917,0,1,0-47.918,47.916h0a47.917,47.917,0,0,0,47.917-47.916Zm-11.584.083a36,36,0,1,0-36,36,36,36,0,0,0,36-36h0ZM2885.667,3321.056v225m79.167-79.167h-150m118.333-.583a47.917,47.917,0,1,0-47.918,47.916h0A47.917,47.917,0,0,0,2933.167,3466.306Zm-11.584.083a36,36,0,1,0-36,36h0A36,36,0,0,0,2921.583,3466.389ZM1419.417,3321.056v225m79.167-79.167h-150m118.333-.583A47.917,47.917,0,1,0,1419,3514.222h0A47.917,47.917,0,0,0,1466.917,3466.306Zm-11.584.083a36,36,0,1,0-36,36h0A36,36,0,0,0,1455.333,3466.389Z" style="fill: none;stroke: #fff;stroke-miterlimit: 10;stroke-width: 2px;opacity: 0.3"/> -->
  </g>
</svg>
